<svg id="Camada_1" data-name="Camada 1" xmlns="http://www.w3.org/2000/svg" viewBox="0 0 1091.81 288.35"><defs><style>.cls-1{fill:#ff004f;}</style></defs><title>contact</title><path class="cls-1" d="M79,258.17c-9.3,0-18.29-.16-27.27.08-3.65.1-5-1.38-5.55-4.73-1.23-7.89-2.59-15.77-4-23.62-.68-3.73.59-5.18,4.42-5.11,9,.16,17.92.05,27.55.05v-6.27q0-71-.07-142a11.85,11.85,0,0,1,3.37-8.89c8.07-8.63,15.92-17.48,23.74-26.34,2.67-3,4.77-3.41,7.65-.11,8,9.15,16.36,18,24.27,27.21a12.45,12.45,0,0,1,2.75,7.46c.16,47.49.12,95,.12,142.46v6.43c9.26,0,18.05.21,26.82-.09,4.6-.15,5.95,1.44,5.09,5.84-1.46,7.51-2.8,15.06-3.89,22.63-.52,3.64-2,5.12-5.81,5-9-.24-17.95-.08-27.33-.08-1.33,10.09-2.61,19.8-3.88,29.52-1,7.76-1.82,15.55-3.15,23.25-.26,1.48-2.48,3.68-3.86,3.72-9.82.32-19.66.09-29.49.22-3.78,0-4.19-2.24-4.55-5.14-2-16.19-4.07-32.37-6.15-48.55A29,29,0,0,0,79,258.17Zm24.46-33.6V173.5c0-17.16-.07-34.33,0-51.49.09-16.65-.41-33.33.28-50l3,0q.06,76.24,0,152.38H130.5a19.79,19.79,0,0,0,.3-2.3q0-73,0-146a7.28,7.28,0,0,0-1.57-4.45c-7.79-8.86-15.75-17.58-24.65-27.44a37.21,37.21,0,0,1-2.91,4.43c-6.31,7.09-12.88,14-19,21.23a13.39,13.39,0,0,0-3,7.87c-.18,47.16-.13,94.31-.11,141.47,0,1.74.24,3.48.37,5.28ZM158.72,253l3.89-22.85H47.6L51.49,253c9.38,0,18.51.15,27.62-.08,3.61-.09,5.1,1.19,5.46,4.69.66,6.46,1.59,12.88,2.43,19.32,1.4,10.84,2.81,21.68,4.24,32.66h27.63c.39-2.62.8-5.05,1.12-7.5,1.92-14.69,4-29.36,5.62-44.09.47-4.25,2.3-5.17,6.11-5.08C140.53,253.14,149.35,253,158.72,253Z" transform="translate(-42.01 -30.59)"/><path class="cls-1" d="M226.83,164.8H242c0,7.54.12,14.63-.16,21.71,0,.82-2.23,2.11-3.5,2.22-3.6.3-7.24.11-11.26.11l-.85,15h-23.6v-15c-4.43,0-8.25.3-12-.16-1.32-.16-3.35-2.14-3.43-3.4a129.53,129.53,0,0,1,0-17c.08-1.22,2.12-3.14,3.42-3.3,3.73-.45,7.55-.16,11.91-.16,0-4.25.08-7.88,0-11.5-.09-2.85.81-4.32,4-4.22,5.49.17,11,.12,16.48,0,2.78,0,3.94,1.17,3.91,3.88C226.79,156.8,226.83,160.57,226.83,164.8Zm-3.66-11.68H206c0,3.33-.23,6.47.06,9.56.37,4-.84,5.84-5.17,5.39a98.76,98.76,0,0,0-10-.07v17.17c3.93,0,7.56.08,11.17,0,3-.09,4.18,1.14,4,4.16-.18,3.74,0,7.49,0,11.28h17.17c0-4,.1-7.77,0-11.54-.09-2.79,1.12-3.93,3.84-3.88,3.77.07,7.55,0,11.55,0V168c-3.92,0-7.55-.19-11.16.05-3.36.23-4.42-1.16-4.24-4.34C223.31,160.28,223.17,156.83,223.17,153.12Z" transform="translate(-42.01 -30.59)"/><path class="cls-1" d="M186.07,123.24H196c0,4.94.08,9.59-.11,14.23,0,.54-1.46,1.38-2.29,1.45-2.36.2-4.75.07-7.38.07l-.56,9.83H170.17V139a65.92,65.92,0,0,1-7.85-.11,3.3,3.3,0,0,1-2.25-2.23,84.9,84.9,0,0,1,0-11.12,3.25,3.25,0,0,1,2.24-2.16,67.46,67.46,0,0,1,7.8-.1c0-2.79.06-5.16,0-7.54-.06-1.87.53-2.83,2.61-2.76,3.6.11,7.2.08,10.8,0,1.82,0,2.59.77,2.56,2.54C186,118,186.07,120.47,186.07,123.24Zm-2.4-7.66H172.42c0,2.18-.15,4.24,0,6.27.24,2.63-.55,3.83-3.39,3.53a64.73,64.73,0,0,0-6.59,0V136.6c2.58,0,5,.05,7.32,0,2-.06,2.74.75,2.64,2.73-.12,2.45,0,4.91,0,7.39h11.25c0-2.62.06-5.1,0-7.56-.06-1.83.74-2.58,2.52-2.55,2.47,0,4.95,0,7.57,0V125.34c-2.57,0-5-.12-7.31,0-2.2.15-2.9-.76-2.78-2.84C183.76,120.28,183.67,118,183.67,115.59Z" transform="translate(-42.01 -30.59)"/><path class="cls-1" d="M231,94.41h11c0,5.49.09,10.65-.12,15.81,0,.6-1.62,1.54-2.55,1.62-2.62.22-5.27.08-8.2.08l-.62,10.92H213.31V111.9a73.22,73.22,0,0,1-8.72-.12,3.66,3.66,0,0,1-2.5-2.48,94.31,94.31,0,0,1,0-12.35,3.61,3.61,0,0,1,2.49-2.4,74.93,74.93,0,0,1,8.67-.12c0-3.1.06-5.74,0-8.37-.06-2.08.59-3.14,2.9-3.07,4,.12,8,.09,12,0,2,0,2.87.86,2.84,2.82C230.94,88.58,231,91.33,231,94.41Zm-2.67-8.51H215.8c0,2.43-.17,4.71,0,7,.27,2.92-.62,4.25-3.77,3.93a71.91,71.91,0,0,0-7.31,0v12.5c2.86,0,5.5.06,8.13,0,2.17-.07,3,.83,2.94,3-.13,2.72,0,5.45,0,8.21h12.5c0-2.91.07-5.66,0-8.4-.07-2,.82-2.86,2.79-2.83,2.75,0,5.5,0,8.41,0V96.74c-2.85,0-5.5-.14-8.13,0-2.45.17-3.22-.85-3.09-3.16C228.41,91.12,228.3,88.61,228.3,85.91Z" transform="translate(-42.01 -30.59)"/><path class="cls-1" d="M564.16,86.33c0-16.64,0-32.43,0-48.22,0-7.11.07-6.51,7.18-7.24,14.38-1.47,27,2.8,38.64,10.6,17,11.39,33.93,22.85,50.49,34.84,4.73,3.42,8.28,8.6,11.94,13.32,3.78,4.87,5.19,10.66,5.13,16.88-.19,19.65-.18,39.31-.44,59a7.53,7.53,0,0,0,3.87,7.26c22.78,15.06,45.44,30.29,68.13,45.48,6.93,4.64,7,12,.16,16.78q-43.46,30.24-86.87,60.56c-3.17,2.22-5.51,2.63-8.87.42-5-3.26-10.39-8.26-15.51-8.13-4.89.12-9.66,5.83-14.46,9.12-5.36,3.67-10.67,7.4-16,11.07A28.43,28.43,0,0,1,591.07,313a20.49,20.49,0,0,0-8.74,1.91c-11.23,5.57-22.37,5.6-32.85-1.08-28.77-18.34-57.19-37.24-86-55.54-13.55-8.6-18.5-21.37-19.22-36.3-.54-11.14-.37-22.33,0-33.48.39-13.3,7-22.47,18.7-29.06,9.21-5.19,17.53-12,26.11-18.29.94-.69,1.33-2.59,1.39-4,.17-4.33.06-8.66.07-13,0-18.22,7.86-32.25,23.7-41.07,15.69-8.74,31.57-7.87,47,1.44Zm16.44,223.93c-7.79-5-12.92-11.12-13.61-19.64-.66-8.11-.47-16.3-.38-24.45,0-1.26,1.49-2.51,2.28-3.76.75,1.26,2.11,2.5,2.15,3.79.23,6.32.16,12.66.1,19-.1,9.09,3.32,16.33,11.52,20.58s16,2.87,23.47-2.37c13.61-9.58,27.36-19,41-28.49,8.69-6.07,10.93-17.07,5.28-25.39-5.83-8.58-17.08-10.55-26-4.36-6,4.18-11.89,8.56-17.75,13-3.75,2.8-3.26,5.63.94,7.83,1.13.59,1.77,2.12,2.64,3.21-1.49.33-3.11,1.22-4.43.88-4.52-1.15-6.13-4.64-6.37-9-.6-10.87-3.16-21.11-10.54-29.5-12.15-13.82-24.45-27.5-37-41.61-5.18,1.71-12.19,1.62-17.29,7.12-1.51,1.63-4.9,2-7.46,2.07-16.33.59-31.53-10.36-36.8-26.24-1.24-3.75-1.45-9.13-4-10.8-3-1.9-8-.5-12.21-.53h-1c-14.28.52-25.64,11.42-26.08,25.77-.39,12.48-.63,25,.13,37.46.63,10.29,3.64,20.44,12.8,26.52Q506.94,281,552.4,310C561.16,315.65,570.56,315.55,580.61,310.27Zm-86-168.58.45,0c0,6.66-.22,13.33,0,20a33.74,33.74,0,0,0,30.52,32.74c9.17,1,14.36-3.43,14.53-12.58.1-5.66,0-11.32,0-17,0-12.77,3.07-16.24,15.61-17.7a24.51,24.51,0,0,0,21.89-24.43c0-20.46-16.47-38.61-36.81-40.63C519.36,80,499.34,94.46,496,115.33,494.67,124,495,132.89,494.59,141.69Zm83.92-85.75c0,8.11-.11,14.9,0,21.68.24,12.73-1.41,25.6,3.07,38a18.48,18.48,0,0,1,.48,7.92c-.33,3.12,1,4.73,3.42,6.38,18.6,12.58,37.11,25.3,55.66,38,1.43,1,2.9,1.9,5,3.28,0-22.77.05-44.56-.12-66.35,0-1.4-1.49-3.19-2.78-4.12-8.8-6.28-17.73-12.38-26.63-18.52ZM674,225.5c10.26,10.88,9.13,20.42-2.47,28.54-2.86,2-5.83,3.84-8.72,5.8-.94.64-2.43,1.35-2.53,2.18a23.51,23.51,0,0,1-10.7,17.11c8.45,5.93,8.44,5.9,16.24.45q38.47-26.86,77-53.69c1.42-1,2.78-2.07,4.45-3.32l-69.73-46.65c-1,6.18,2.12,12.93-5.68,16.5a17.59,17.59,0,0,0,8.3.87c6.3-1.15,11.19.79,13.42,5.78,2.32,5.2.42,10.38-5.17,14a34.52,34.52,0,0,0-4.63,2.93C680.34,219.08,677.18,222.34,674,225.5Zm-97.61-84.17-1.9.28c-.1,4,0,8-.36,12s1.07,6.59,4.52,9c22.43,15.57,44.68,31.41,67,47.16,4.9,3.46,4.9,4.33-.09,7.72-8,5.43-16,10.76-24,16.24-2.45,1.69-4.46,2.2-7.12.15-7.53-5.78-15.25-11.31-22.91-16.92q-8.94-6.55-17.9-13.07c11.53,16.36,30,27.83,31.83,50.82,6.5-4.75,12-8.74,17.5-12.8a25,25,0,0,1,16.84-5,13,13,0,0,0,6.39-1.7c4.82-2.56,9.16-6.88,14.23-7.93,6.39-1.32,10.56-3.67,14.22-9.2,2.58-3.9,7.7-6.12,11.66-9.12,2.53-1.92,4.48-4.11,3-7.61-1.4-3.32-4.1-4.41-7.33-3.52-5.42,1.5-10.16.35-14.81-3.31-5.22,6.85-9.87,3.68-15.15-.21-11.39-8.4-23.13-16.3-34.74-24.41ZM662.51,192c5.35-3.61,10.33-5.26,10.19-12.77-.43-22.81-.42-45.64.33-68.44.37-11.2-3.35-20.19-11.5-26.91-11.77-9.71-24-19-36.64-27.51A282.57,282.57,0,0,0,592,37.79c-4.53-2.22-10.27-2-15.46-2.85l-.41,1.72c1.28,1,2.52,2,3.84,2.86,26,18,52,36,78.1,53.87,3.29,2.25,4.58,4.61,4.56,8.55-.14,28-.08,56-.08,84Zm-4.67.53v-6c0-27.49-.08-55,.09-82.46,0-3.76-1.08-6-4.2-8.13C626.78,77.63,600,59,573.12,40.52c-1.15-.8-2.42-1.44-4.12-2.44,0,17.28-.15,33.92.17,50.54,0,2.37,2.38,4.71,3.65,7.06C574,81.41,574,67.76,574.06,54.1c0-1.51.79-3,1.22-4.51,1.49.51,3.18.72,4.42,1.58q34.17,23.46,68.18,47.15a8,8,0,0,1,3,5.58c.2,23.15.16,46.31.07,69.46,0,1.5-.87,3-1.33,4.49-1.5-.51-3.2-.73-4.47-1.58-9.95-6.68-19.81-13.49-29.7-20.26l-34.49-23.57-2.24,4.82Zm-83.31-27.31c-2.38,3.63-1.45,5.6,1.66,7.74q26.53,18.28,52.75,37c1.6,1.14,2.44,3.35,3.63,5.06-2.14-.48-4.66-.41-6.37-1.54-8-5.34-15.86-11-23.77-16.56l-31.58-22.11-4,5.93c1.39,1.06,2.66,2.1,4,3q23.51,16.51,47,33c1.23.86,2.7,1.53,3.6,2.66.77,1,.86,2.47,1.26,3.74a19.5,19.5,0,0,1-4-.19,8.72,8.72,0,0,1-2.47-1.66c-16.63-11.67-33.29-23.29-49.86-35-2.72-1.93-4.62-2-6.37.86.19.45.23.86.45,1Q588.21,208.68,616,229a3.84,3.84,0,0,0,3.47.23c7.75-5.05,15.39-10.29,23.44-15.74Zm-5.1-16.82c-5.9,1.25-11.82,2.47-17.72,3.79-3.77.84-6.56,3.08-6.67,7.06-.24,9.12-.08,18.24-.08,27.36C562.14,186.41,572.76,169.25,569.42,148.45Zm91.43,107.73c4.56-3.71,9.63-6.68,13-11,2-2.61,2.48-7.63,1.54-11-1.09-3.89-5.9-4.58-9.39-3.46-6,1.94-11.65,4.86-17.59,7.43,3.14,3.4,5.65,5.61,7.5,8.28S658.9,252.3,660.85,256.19Zm-.91,33.16,1.08,1.39,88.33-61.55-1-1.49ZM490.19,146.23l-13.84,10.32h13.84ZM642.59,284l13.15,7.72C653.58,286.06,646.7,282.28,642.59,284Z" transform="translate(-42.01 -30.59)"/><path class="cls-1" d="M980.25,312.58c-12.68,0-25.37,0-38.05,0-9.61,0-17.15-5.32-19.34-14.74-4.66-20-9.21-40.11-13-60.32-2.84-15.08,6.06-32.34,19.45-40,5.25-3,10.64-5.74,15.91-8.71,4.17-2.35,7.8-2,11.42,1.27,6.75,6.07,13.75,11.86,20.49,17.94,2.3,2.07,4,2.08,6.28,0,6.88-6.14,14-12,20.8-18.24,3.65-3.31,7.26-3.7,11.35-1.14,7.78,4.86,16.46,8.73,23.14,14.8,11.36,10.31,14.85,24,11.65,39.08-3.71,17.47-7.58,34.9-11.44,52.33-2.73,12.32-9.55,17.68-22.32,17.68Zm-.09-5.82c12.54,0,25.08.08,37.61,0,8-.07,13.1-4,14.85-11.8,4.08-18.11,8.13-36.23,11.92-54.4,2.6-12.46-.41-23.94-9.72-32.45-6-5.51-14-8.88-21-13.44-2.86-1.87-4.82-1.31-7.17.83-6.18,5.62-12.55,11-18.85,16.52-6,5.23-9.14,5.29-15.05.19-6.44-5.55-12.92-11.06-19.19-16.79-2.42-2.22-4.37-2.47-7.18-.73-4.28,2.65-8.84,4.84-13.26,7.26a36,36,0,0,0-17.49,38.59q5.84,26.36,11.66,52.72c2.18,9.89,6.66,13.51,16.92,13.53C956.23,306.78,968.19,306.76,980.16,306.76Z" transform="translate(-42.01 -30.59)"/><path class="cls-1" d="M1083.64,39c13.75-.06,25.44,3.75,35.5,12.05,20,16.5,19.48,44.49-1,60.39-9.44,7.32-20.23,10.63-32,11.44a10.8,10.8,0,0,0-6.18,2.71c-6.25,5.88-13.74,8.24-22,8.47a4.48,4.48,0,0,1-3.48-1.86c-.43-.82.63-2.38,1-3.64a83.18,83.18,0,0,0,2.56-10.23c.13-1-1.59-2.47-2.78-3.24-8.59-5.58-15.26-12.77-18.63-22.56-5.17-15-.11-31.16,13-41.72A52.28,52.28,0,0,1,1083.64,39Zm-21.42,88.72c6.52-1.12,11-3.29,14-7.62,1.72-2.49,3.61-3.16,6.44-3.17,10.26,0,19.94-2.29,28.73-7.93,21.5-13.82,22-41.34.92-55.73-16.73-11.43-40.51-11.22-57,.5-19.57,13.94-20.65,39.49-1.24,53.26C1061.93,112.55,1066.66,117.39,1062.22,127.72Z" transform="translate(-42.01 -30.59)"/><path class="cls-1" d="M1024.43,131.37c.46,23.66-19.68,44.16-43.72,44.48s-43.91-19.09-44.48-43.58c-.55-23.46,18.89-44,42.1-44.54C1003.79,87.16,1023.93,106.22,1024.43,131.37Zm-6.22.29a38,38,0,1,0-75.95.07,38,38,0,1,0,75.95-.07Z" transform="translate(-42.01 -30.59)"/><path class="cls-1" d="M1084.14,86.82c-1.28-2-2.72-3.23-2.58-4.26s1.9-2.67,2.87-2.62a4,4,0,0,1,2.78,2.78C1087.28,83.77,1085.67,84.91,1084.14,86.82Z" transform="translate(-42.01 -30.59)"/><path class="cls-1" d="M1112.2,82.75c-2.12,1.32-3.33,2.66-4.5,2.62-1,0-2.81-1.84-2.67-2.55.23-1.17,1.68-2.8,2.74-2.9S1110.1,81.32,1112.2,82.75Z" transform="translate(-42.01 -30.59)"/><path class="cls-1" d="M1060,78c1.54,1.95,3,3,3.07,4.13.09.92-1.55,2.9-2.2,2.81-1.23-.18-3-1.33-3.22-2.39S1058.79,80.22,1060,78Z" transform="translate(-42.01 -30.59)"/></svg>