<svg id="Camada_1" data-name="Camada 1" xmlns="http://www.w3.org/2000/svg" viewBox="0 0 361 349"><defs><style>.cls-1{fill:#ff004f;}</style></defs><title>contact</title><path class="cls-1" d="M153.25,312.58c-12.68,0-25.37,0-38.05,0-9.61,0-17.15-5.32-19.34-14.74-4.66-20-9.21-40.11-13-60.32-2.84-15.08,6.06-32.34,19.45-40,5.25-3,10.64-5.74,15.91-8.71,4.17-2.35,7.8-2,11.42,1.27,6.75,6.07,13.75,11.86,20.49,17.94,2.3,2.07,4,2.08,6.28,0,6.88-6.14,14-12,20.8-18.24,3.65-3.31,7.26-3.7,11.35-1.14,7.78,4.86,16.46,8.73,23.14,14.8,11.36,10.31,14.85,24,11.65,39.08-3.71,17.47-7.58,34.9-11.44,52.33-2.73,12.32-9.55,17.68-22.32,17.68Zm-.09-5.82c12.54,0,25.08.08,37.61,0,8-.07,13.1-4,14.85-11.8,4.08-18.11,8.13-36.23,11.92-54.4,2.6-12.46-.41-23.94-9.72-32.45-6-5.51-14-8.88-21-13.44-2.86-1.87-4.82-1.31-7.17.83-6.18,5.62-12.55,11-18.85,16.52-6,5.23-9.14,5.29-15.05.19-6.44-5.55-12.92-11.06-19.19-16.79-2.42-2.22-4.37-2.47-7.18-.73-4.28,2.65-8.84,4.84-13.26,7.26A36,36,0,0,0,88.7,240.51q5.84,26.36,11.66,52.72c2.18,9.89,6.66,13.51,16.92,13.53C129.23,306.78,141.19,306.76,153.16,306.76Z"/><path class="cls-1" d="M256.64,39c13.75-.06,25.44,3.75,35.5,12.05,20,16.5,19.48,44.49-1,60.39-9.44,7.32-20.23,10.63-32,11.44a10.8,10.8,0,0,0-6.18,2.71c-6.25,5.88-13.74,8.24-22,8.47a4.48,4.48,0,0,1-3.48-1.86c-.43-.82.63-2.38,1-3.64a83.18,83.18,0,0,0,2.56-10.23c.13-1-1.59-2.47-2.78-3.24-8.59-5.58-15.26-12.77-18.63-22.56-5.17-15-.11-31.16,13-41.72A52.28,52.28,0,0,1,256.64,39Zm-21.42,88.72c6.52-1.12,11-3.29,14-7.62,1.72-2.49,3.61-3.16,6.44-3.17,10.26,0,19.94-2.29,28.73-7.93,21.5-13.82,22-41.34.92-55.73-16.73-11.43-40.51-11.22-57,.5C208.81,67.7,207.73,93.25,227.14,107,234.93,112.55,239.66,117.39,235.22,127.72Z"/><path class="cls-1" d="M197.43,131.37c.46,23.66-19.68,44.16-43.72,44.48s-43.91-19.09-44.48-43.58c-.55-23.46,18.89-44,42.1-44.54C176.79,87.16,196.93,106.22,197.43,131.37Zm-6.22.29a38,38,0,1,0-75.95.07,38,38,0,1,0,75.95-.07Z"/><path class="cls-1" d="M257.14,86.82c-1.28-2-2.72-3.23-2.58-4.26s1.9-2.67,2.87-2.62a4,4,0,0,1,2.78,2.78C260.28,83.77,258.67,84.91,257.14,86.82Z"/><path class="cls-1" d="M285.2,82.75c-2.12,1.32-3.33,2.66-4.5,2.62-1,0-2.81-1.84-2.67-2.55.23-1.17,1.68-2.8,2.74-2.9S283.1,81.32,285.2,82.75Z"/><path class="cls-1" d="M233,78c1.54,1.95,3,3,3.07,4.13.09.92-1.55,2.9-2.2,2.81-1.23-.18-3-1.33-3.22-2.39S231.79,80.22,233,78Z"/></svg>