<svg id="Camada_1" data-name="Camada 1" xmlns="http://www.w3.org/2000/svg" viewBox="0 0 318 319"><defs><style>.cls-1{fill:#ff004f;}</style></defs><title>front</title><path class="cls-1" d="M156,16H276.91C290.53,16,297,22.53,297,36.26q0,120.7,0,241.39c0,14-6.41,20.34-20.52,20.34H35.59C21.27,298,15,291.67,15,277.23q0-120.45,0-240.89C15,22.35,21.41,16,35.51,16Zm-.47,275.17q60.49,0,121,0c10.4,0,13.68-3.32,13.69-13.82q0-120.23,0-240.45c0-10.87-3.15-14-13.94-14H35.77C25,22.84,21.84,26,21.84,36.9q0,120,0,240c0,11.21,3.07,14.31,14.18,14.31Z"/><path class="cls-1" d="M252.88,157.63c-15.15-15-29-28.75-42.76-42.47-5.08-5-10.28-10-15.07-15.29-1.2-1.33-1-3.91-1.47-5.92,2,.34,4.77-.06,6,1.12,19.58,19.27,38.94,38.76,58.4,58.14,2.72,2.71,2.61,4.94-.07,7.61q-29,28.89-57.95,57.89c-1.84,1.84-4.19,3.94-6.15,1.1-.81-1.17.29-4.77,1.64-6.15,17.27-17.58,34.73-35,52.2-52.34C248.89,160,250.6,159.21,252.88,157.63Z"/><path class="cls-1" d="M59.07,156.19l53.08,52.89c2,2,4.28,3.82,5.85,6.12.79,1.17.27,3.23.34,4.89a26,26,0,0,1-4.93-.2c-.83-.18-1.48-1.28-2.18-2q-28.07-28.08-56.14-56.16c-4.4-4.4-4.41-5.09.15-9.66q28-28.1,56.14-56.16c.82-.82,1.6-2,2.61-2.25,1.28-.38,3.49-.58,4,.11a5.8,5.8,0,0,1,.5,4.43c-.3,1.13-1.66,2-2.6,2.94Q90.12,127,64.3,152.7C63,154,61.26,154.75,59.07,156.19Z"/><path class="cls-1" d="M128.39,235.82c2.64-8.64,5.07-16.58,7.49-24.53L176,79.62c.24-.79.27-1.88.81-2.31a33.58,33.58,0,0,1,4.21-2.5c.71,1.48,2.22,3.1,2,4.42a91.28,91.28,0,0,1-3.06,11Q158,162.3,136,234.33c-.24.79-.29,1.88-.83,2.3-1.28,1-2.81,2.31-4.22,2.28C130,238.89,129.15,236.79,128.39,235.82Z"/></svg>