<svg id="Camada_1" data-name="Camada 1" xmlns="http://www.w3.org/2000/svg" viewBox="0 0 361 349"><defs><style>.cls-1{fill:#ff004f;}</style></defs><title>house</title><path class="cls-1" d="M67.16,168.16c-6.73,0-12.88.3-19-.15-2.29-.17-5.62-1.62-6.32-3.36-.64-1.58,1.06-5,2.74-6.47q63.39-55,127-109.83c3.67-3.18,6.57-3.38,10.39-.06q63.23,54.84,126.65,109.46c.63.54,1.54,1,1.82,1.67.7,1.74,2,4,1.41,5.31A6.69,6.69,0,0,1,307,168c-6.78.37-13.59.15-21,.15v6.26q0,60,0,120c0,7.21-1.19,8.46-8.33,8.46q-101,0-202,0c-7.37,0-8.53-1.24-8.54-8.83q0-59.74,0-119.48ZM177,56.7,61,157.37a17.3,17.3,0,0,0,7.25,1.13c8.23,0,8.88.65,8.88,8.76q0,59.75,0,119.49c0,1.92,0,3.83,0,5.79H276.83V268.9q0-51.5,0-103c0-6.81.94-7.71,7.84-7.74h8.1L293,157Z"/></svg>