<?xml version="1.0" encoding="utf-8"?>
<!-- Generator: Adobe Illustrator 21.0.2, SVG Export Plug-In . SVG Version: 6.00 Build 0)  -->
<svg version="1.1" xmlns="http://www.w3.org/2000/svg" xmlns:xlink="http://www.w3.org/1999/xlink" x="0px" y="0px" width="159.1px"
	 height="159px" viewBox="0 0 159.1 159" style="enable-background:new 0 0 159.1 159;" xml:space="preserve">
<style type="text/css">
	.st0{fill:#FFFFFF;}
</style>
<g id="Camada_1">
	<path class="st0" d="M15.7,50.2C27.5,55.9,39,61.4,50.4,66.9c0.3-0.3,0.6-0.6,0.9-0.9c-0.7-0.9-1.3-2.2-2.2-2.6
		c-8.9-4.4-17.8-8.7-26.8-13c-1.6-0.8-3.2-1.6-5.3-2.7c1.5-2.6,3-5.1,4.7-8.1C32,47,42.1,54.2,52.2,61.5c0.4-0.2,0.8-0.4,1.2-0.6
		c-0.5-1-0.7-2.3-1.5-2.9c-8.4-6.2-16.9-12.3-25.3-18.4c-0.9-0.6-1.7-1.3-2.9-2.2c2-2.4,3.9-4.6,5.5-6.5c9,8.4,17.8,16.7,26.8,25.1
		c1.8-0.9,0.8-1.9-0.4-3.2C48,45.2,40.6,37.6,33.3,30c-0.5-0.5-0.9-1.1-1.6-1.8c2.3-1.9,4.5-3.8,7.2-5.9C45.7,32.3,52.4,42,59,51.7
		c3-0.9,1.7-2.4,0.8-3.8c-6.1-8.9-12.1-17.8-18.5-27.2c2.7-1.6,5.2-3.1,8.2-4.8c4.9,10.9,9.7,21.5,14.5,32.1
		c2.8-0.2,2.3-1.5,1.6-3.2c-4.2-9.3-8.4-18.5-12.5-27.8c-0.2-0.5-0.4-1.1-0.8-2.2c2.8-1,5.6-2.1,8.7-3.2c2.9,11.6,5.8,22.7,8.7,34.3
		c0.9-0.3,1.7-0.6,2.2-0.7c-2.7-11.4-5.3-22.5-8-34c2.9-0.5,5.8-1.1,9.1-1.7c0.5,7,0.9,13.6,1.5,20.2c0.1,1.1,0.9,2.2,1.3,3.3
		c0.5-0.1,1-0.3,1.5-0.4c-0.5-7.5-1-15.1-1.6-22.9c3.2,0,6.1,0,9.4,0c-0.8,8.1-1.6,16-2.4,23.9c-0.3,3.1-0.8,6.2-0.9,9.3
		c0,0.8,0.9,1.6,1.4,2.4c0.4-0.1,0.7-0.3,1.1-0.4c1.2-11.5,2.4-23,3.6-35c3.2,0.5,6,1,9.3,1.6c-2.7,9.5-5.2,18.6-7.8,27.6
		c-0.5,1.6-1.1,3.2-1.3,4.9C88.1,45,88.7,46,89,46.9c0.4-0.1,0.8-0.1,1.2-0.2c3.2-11.3,6.5-22.7,9.8-34.3c3,1.1,5.7,2.1,8.8,3.3
		c-2.9,6.1-5.7,11.9-8.5,17.7c-2.1,4.3-4.2,8.5-6.1,12.8c-0.4,0.9-0.1,2.2-0.1,3.3c0.4,0.1,0.9,0.1,1.3,0.2
		c5.2-10.7,10.4-21.5,15.9-32.6c2.7,1.6,5.1,3,8.1,4.7c-1.8,2.6-3.4,4.9-5,7.3c-4.9,6.9-10,13.7-14.8,20.7c-0.6,0.9-0.6,2.3-0.9,3.5
		c0.4,0.2,0.9,0.3,1.3,0.5c7.1-9.9,14.3-19.7,21.7-30.1c2.4,2,4.6,3.9,6.8,5.7c-4.3,4.5-8.5,8.8-12.7,13.1
		c-4.1,4.1-8.4,8.1-12.4,12.3c-0.7,0.7-0.8,2.1-1.2,3.1c0.4,0.2,0.7,0.4,1.1,0.6c9.1-8.8,18.2-17.6,27.6-26.6c2,2.5,3.9,4.8,5.9,7.3
		c-10.2,6.9-20,13.6-29.8,20.2c-1.3,0.9-3.2,1.7-1,4c10.6-7.2,21.2-14.4,32.3-21.9c1.6,2.7,3.1,5.2,4.8,8.1
		c-12.2,5.5-24.2,10.9-36.1,16.3c1,2.4,1.1,2.5,3.5,1.4c9.7-4.3,19.4-8.7,29.1-13.1c1.4-0.6,2.9-1.2,4.7-2c1,3,2,5.8,3,8.9
		c-11.2,2.9-22.1,5.6-33,8.4c0,0.4,0,0.8,0,1.2c2.1,0,4.2,0.5,6.2,0c9.1-2.1,18.1-4.5,27.4-6.9c0.6,3.1,1.1,5.9,1.7,9.3
		c-8.4,0.7-16.5,1.3-24.9,2c1.7,3.3,4.3,2.4,6.5,2.3c5.9-0.4,11.8-0.9,18.1-1.4c0,3.2,0,6.1,0,9.4c-5.2-0.5-10.3-0.9-15.5-1.4
		c0.6,2.5,0.6,2.5,6.8,3.3c2.7,0.4,5.5,0.7,8.6,1c-0.6,3.1-1.1,5.9-1.5,8.6c-5.7,0.4-10.5-4.3-16-2.3c-0.1,0.4-0.1,0.7-0.2,1.1
		c5,1.5,9.9,2.9,15.2,4.5c-1.1,3-2.2,5.8-3.3,8.8c-4.8-2.3-9.4-4.6-14-6.7c-0.8-0.4-2,0.1-3,0.3c0,0.4,0,0.8,0,1.2
		c5.1,2.5,10.2,5,15.8,7.7c-1.6,2.7-3,5.2-4.6,7.9c-5.7-3.8-11-7.4-16.4-10.9c-0.2-0.2-1.1,0.7-2,1.2c5.6,4.1,10.9,7.9,16.7,12.1
		c-2.1,2.4-4,4.6-5.4,6.2c-5.4-4.9-10.5-9.7-15.7-14.4c-1.2-1.1-2.8-1.6-4.3-2.4c-0.3,0.4-0.5,0.7-0.8,1.1
		c5.9,6.2,11.8,12.3,17.9,18.7c-2.4,2-4.7,3.8-7.2,5.9c-6.8-9.9-13.4-19.5-20-29.1c-0.5,0.3-1.1,0.5-1.6,0.8
		c0.4,1.1,0.6,2.3,1.2,3.3c5.9,8.7,11.8,17.4,18,26.5c-2.7,1.6-5.3,3.1-8.2,4.8c-4.6-10.1-9.1-20-13.5-29.9c-0.4,0-0.8,0-1.2,0
		c-0.1,1.2-0.5,2.5-0.1,3.5c3.3,7.8,6.9,15.5,10.3,23.2c0.6,1.3,1.1,2.6,1.8,4.3c-3,1-5.9,2-8.9,3c-2.7-10.4-5.2-20.5-7.8-30.4
		c-3.5-0.2-2.3,2-1.9,3.4c1.9,8,4,16,6,23.9c0.3,1.2,0.5,2.3,0.8,3.8c-3,0.5-5.8,1-9.1,1.6c-0.5-6-1-11.8-1.4-17.5
		c-0.3-3.9-0.5-7.8-0.9-11.6c-0.1-0.9-1.1-1.7-1.7-2.5c-0.4,0.2-0.7,0.4-1.1,0.7c0.7,10.1,1.5,20.2,2.2,30.7c-3.1,0-6.1,0-9.4,0
		c0.8-8,1.6-15.9,2.4-23.8c0.2-1.8,0.4-3.6,0.4-5.4c0-0.6-0.6-1.3-1-1.9c-0.5,0.5-1.4,1-1.5,1.5c-0.5,3.4-0.8,6.7-1.1,10.1
		c-0.6,6.3-1.3,12.5-1.9,19.3c-3.2-0.5-6-1-9.3-1.6c2.2-7.9,4.3-15.3,6.4-22.7c0.6-2.1,1.4-4.1,1.8-6.3c0.2-1-0.4-2.1-0.6-3.2
		c-0.4,0-0.8,0-1.3,0c-2.9,10.3-5.9,20.5-8.9,31.3c-3-1.1-5.7-2.1-8.9-3.3c4.6-9.6,9.2-18.9,13.6-28.3c0.5-1.2,0.4-2.7,0.5-4
		c-0.5-0.1-0.9-0.2-1.4-0.3c-5,10.3-10,20.6-15.2,31.3c-2.7-1.6-5.2-3-8.1-4.8c5.1-7.1,10-13.9,14.9-20.8c-0.2-0.3-0.4-0.6-0.6-0.9
		c-1.2,0.8-2.8,1.3-3.6,2.3c-4.3,5.7-8.4,11.5-12.9,17.6c-2.4-2.1-4.7-4-7-6c4.8-4.8,9.3-9.5,13.9-14.1c-0.1-0.3-0.1-0.6-0.2-0.9
		c-1.3,0.4-2.9,0.4-3.7,1.3c-3.8,3.9-7.5,8-11.5,12.3c-2.6-3.2-4.5-5.4-6.6-8c4.9-3.4,9.5-6.5,14-9.6c0-0.4-0.1-0.7-0.1-1.1
		c-1.1,0-2.4-0.4-3.2,0.1c-4.1,2.6-8,5.3-12.3,8.2c-1.6-2.7-3-5.2-4.7-8.1c4.8-2.2,9.3-4.3,13.9-6.4c0-0.3,0-0.7,0-1
		c-1.3-0.1-2.7-0.6-3.8-0.2c-3.7,1.4-7.3,3.1-11.2,4.9c-1.1-3-2-5.7-2.9-8.4c4.5-3.1,10.8-1.4,14.4-5.6c-0.1-0.4-0.3-0.8-0.4-1.2
		c-4.8,1.1-9.5,2.3-14.7,3.5c-0.5-3-1.1-5.9-1.7-9.2c6.5-0.5,12.6-0.9,18.8-1.5c1.6-0.2,3.1-1.1,4.6-1.7c-0.1-0.4-0.2-0.8-0.3-1.2
		c-7.5,0.5-15,1.1-22.8,1.6c0-3.3,0-6.2,0-9.4c8.3,0.9,16.4,1.8,24.4,2.5c2.7,0.2,5.5-0.2,8.2-0.3c0-0.5,0-1,0-1.6
		C31.7,73.3,21,72.2,9.9,71c0.6-3.2,1.1-6,1.7-9.3c7.1,2,13.8,3.9,20.5,5.8c4.9,1.4,9.8,2.8,14.7,4.1c0.9,0.2,2-0.3,3-0.5
		c-0.8-0.7-1.5-1.7-2.4-2c-10-2.9-20-5.7-30-8.5c-1.6-0.5-3.2-1-5-1.6C13.5,56,14.5,53.3,15.7,50.2z M76.6,48.1
		c-14.9,2.4-21.4,11.4-23.6,24.4c-0.2,1-1.6,2.2-2.7,2.7c-7.7,3.1-14.4,7.6-19.1,14.5c-3.5,5.2-2.6,8.4,2.7,11.7
		c1.3,0.8,2.6,2.2,3.1,3.5c2.8,7.8,19.2,10.6,23.2,3.7c1.2-2.1,5.1-2.1,6.2,0.1c4.6,9.2,26.2,7.6,29.5-2c0.8-2.3,4.4-2.9,6.2-1.3
		c6.4,5.7,20,1.9,22.2-6.4c0.6-2.4,1.8-3.7,3.4-5.1c4.4-3.9,4.5-6.5,0.4-10.7c-5.9-6-13.1-9.8-21.2-12.1c-1.1-0.3-2.6-1.4-3-2.4
		c-4.1-12.5-11.8-20.4-26.7-20.6c0.5-2.7,1.1-5.1,1.4-7.6c0.1-1.2-0.1-3.1-0.8-3.5c-1-0.5-2.9-0.3-3.8,0.4c-0.6,0.5-0.5,2.4-0.2,3.5
		C74.6,43.2,75.6,45.4,76.6,48.1z"/>
	<path class="st0" d="M105.6,103.5c5-1.7,9.7-3.2,14.9-4.9L105.6,103.5z"/>
	<g>
		<path d="M76.6,48.1c-1-2.7-2-4.9-2.7-7.2c-0.3-1.1-0.4-3,0.2-3.5c0.9-0.7,2.8-0.9,3.8-0.4c0.7,0.4,0.9,2.3,0.8,3.5
			c-0.3,2.5-0.9,4.9-1.4,7.6c14.9,0.2,22.5,8.1,26.7,20.6c0.3,1,1.8,2.1,3,2.4c8.1,2.3,15.3,6.1,21.2,12.1c4.1,4.1,4,6.7-0.4,10.7
			c-1.6,1.4-2.8,2.8-3.4,5.1c-2.2,8.3-15.8,12.1-22.2,6.4c-1.8-1.6-5.4-1-6.2,1.3c-3.2,9.7-24.8,11.3-29.5,2c-1.1-2.2-5-2.2-6.2-0.1
			c-4,6.9-20.4,4.2-23.2-3.7c-0.5-1.4-1.8-2.7-3.1-3.5c-5.3-3.3-6.2-6.5-2.7-11.7c4.7-7,11.4-11.4,19.1-14.5
			c1.1-0.4,2.6-1.6,2.7-2.7C55.3,59.5,61.8,50.5,76.6,48.1z M51.1,78.7c-7.2,2.9-13,7.1-17.2,13.3c-1.8,2.5-1.4,4.7,1.4,5.9
			c2.9,1.4,6,2.8,9.1,3.4c21.9,4.5,43.6,3.1,65-2.9c5.4-1.5,10.5-4.2,15.5-6.8c2.3-1.1,3.8-3.2,1.2-5.8c-5.4-5.3-11.8-9.1-17.7-10.7
			c-4.2,2.7-7.2,5.2-10.6,6.6c-10.8,4.2-22.2,4.7-33.6,3.4C59.3,84.6,54.3,83.6,51.1,78.7z M74,82.3c0-0.2,0-0.3,0.1-0.5
			c1.3,0,2.7,0.1,4,0c7.1-0.6,14.3-1.3,20.7-4.8c1.4-0.7,3.2-2.8,3-3.9c-2.7-15-13.7-25.7-30-20.8c-10.1,3.1-14.1,11-15.5,20.8
			c-0.7,5.3-0.3,6.1,5,7.2C65.3,81.3,69.7,81.6,74,82.3z M70.7,107.6c4.7,5.5,17.5,4.5,20.8-1.5C84.7,106.6,77.8,107.1,70.7,107.6z
			 M120.5,98.6c-5.2,1.7-9.9,3.3-14.9,4.9C111.1,105.7,116.6,103.9,120.5,98.6z M56.3,107c-5.3-0.9-10.1-1.7-15-2.6
			C44.9,109,51.7,110.2,56.3,107z"/>
		<path d="M72.3,55.7c4.7-3.6,12.9-2.5,18,1.5c5.3,4.2,8.8,12.4,6.5,17.4C94.8,60.3,87.2,53.7,72.3,55.7z"/>
	</g>
</g>
<g id="Camada_3">
	<path d="M79.5,159C35.3,159,0,123.7,0,79.6C0,35.3,35.4,0.2,79.7,0c43.4-0.2,80,36.2,79.4,80.8C158.5,123.8,123.1,159,79.5,159z
		 M80.8,2.4C40.1,2.1,3.6,33.2,2.5,78.3c-0.9,40.1,29.8,76.4,74.3,78.2c41.5,1.7,78.1-30,79.7-74.6C158,40.4,125.8,4,80.8,2.4z"/>
</g>
<g id="Camada_2">
	<path d="M79.4,152.4c-40.3,0-72.8-32.5-72.8-72.8C6.7,39,39.2,6.7,80.1,6.7c39.4,0.1,72.7,32.7,72.3,74.1
		C152,119.9,119.3,152.4,79.4,152.4z M15.7,50.2c-1.2,3.1-2.2,5.8-3.4,8.7c1.8,0.6,3.4,1.1,5,1.6c10,2.8,20,5.6,30,8.5
		c0.9,0.3,1.6,1.3,2.4,2c-1,0.2-2.1,0.8-3,0.5c-4.9-1.2-9.8-2.7-14.7-4.1c-6.7-1.9-13.4-3.8-20.5-5.8c-0.6,3.3-1.1,6.1-1.7,9.3
		c11.1,1.2,21.8,2.3,32.5,3.4c0,0.5,0,1,0,1.6c-2.7,0.1-5.5,0.5-8.2,0.3c-8.1-0.7-16.1-1.6-24.4-2.5c0,3.2,0,6.2,0,9.4
		c7.7-0.5,15.3-1.1,22.8-1.6c0.1,0.4,0.2,0.8,0.3,1.2c-1.5,0.6-3,1.5-4.6,1.7c-6.1,0.6-12.3,1-18.8,1.5c0.6,3.3,1.1,6.2,1.7,9.2
		c5.2-1.2,10-2.4,14.7-3.5c0.1,0.4,0.3,0.8,0.4,1.2c-3.7,4.2-9.9,2.6-14.4,5.6c0.9,2.6,1.9,5.4,2.9,8.4c4-1.7,7.5-3.5,11.2-4.9
		c1.1-0.4,2.5,0.1,3.8,0.2c0,0.3,0,0.7,0,1c-4.5,2.1-9.1,4.2-13.9,6.4c1.7,2.9,3.1,5.4,4.7,8.1c4.3-2.9,8.2-5.7,12.3-8.2
		c0.8-0.5,2.1-0.1,3.2-0.1c0,0.4,0.1,0.7,0.1,1.1c-4.6,3.1-9.1,6.3-14,9.6c2.1,2.5,4,4.8,6.6,8c4-4.4,7.7-8.5,11.5-12.3
		c0.8-0.8,2.5-0.9,3.7-1.3c0.1,0.3,0.1,0.6,0.2,0.9c-4.6,4.7-9.2,9.3-13.9,14.1c2.3,2,4.6,3.9,7,6c4.5-6.1,8.6-12,12.9-17.6
		c0.8-1.1,2.4-1.6,3.6-2.3c0.2,0.3,0.4,0.6,0.6,0.9c-4.9,6.8-9.8,13.7-14.9,20.8c2.9,1.7,5.4,3.2,8.1,4.8
		c5.2-10.7,10.2-21,15.2-31.3c0.5,0.1,0.9,0.2,1.4,0.3c-0.2,1.3,0,2.8-0.5,4c-4.4,9.4-9,18.7-13.6,28.3c3.1,1.2,5.9,2.2,8.9,3.3
		c3.1-10.7,6-21,8.9-31.3c0.4,0,0.8,0,1.3,0c0.2,1.1,0.8,2.2,0.6,3.2c-0.4,2.1-1.2,4.2-1.8,6.3c-2.1,7.4-4.2,14.8-6.4,22.7
		c3.3,0.6,6.2,1,9.3,1.6c0.7-6.8,1.3-13.1,1.9-19.3c0.3-3.4,0.7-6.8,1.1-10.1c0.1-0.6,1-1,1.5-1.5c0.3,0.6,1,1.3,1,1.9
		c0,1.8-0.2,3.6-0.4,5.4c-0.8,7.9-1.6,15.8-2.4,23.8c3.3,0,6.3,0,9.4,0c-0.8-10.4-1.5-20.5-2.2-30.7c0.4-0.2,0.7-0.4,1.1-0.7
		c0.6,0.8,1.6,1.6,1.7,2.5c0.4,3.9,0.6,7.7,0.9,11.6c0.5,5.8,0.9,11.5,1.4,17.5c3.3-0.6,6.1-1.1,9.1-1.6c-0.3-1.5-0.6-2.7-0.8-3.8
		c-2-8-4.1-15.9-6-23.9c-0.3-1.4-1.6-3.6,1.9-3.4c2.5,10,5.1,20,7.8,30.4c3-1,5.8-2,8.9-3c-0.7-1.7-1.3-3-1.8-4.3
		c-3.5-7.7-7-15.4-10.3-23.2c-0.4-1,0.1-2.3,0.1-3.5c0.4,0,0.8,0,1.2,0c4.5,9.9,8.9,19.8,13.5,29.9c2.9-1.7,5.4-3.2,8.2-4.8
		c-6.2-9.1-12.2-17.8-18-26.5c-0.6-0.9-0.8-2.2-1.2-3.3c0.5-0.3,1.1-0.5,1.6-0.8c6.6,9.6,13.2,19.2,20,29.1c2.5-2.1,4.8-3.9,7.2-5.9
		c-6.1-6.3-12-12.5-17.9-18.7c0.3-0.4,0.5-0.7,0.8-1.1c1.4,0.8,3.1,1.4,4.3,2.4c5.3,4.7,10.4,9.5,15.7,14.4c1.3-1.5,3.3-3.8,5.4-6.2
		c-5.8-4.2-11.1-8.1-16.7-12.1c0.9-0.6,1.8-1.4,2-1.2c5.4,3.5,10.8,7.1,16.4,10.9c1.6-2.7,3.1-5.2,4.6-7.9
		c-5.6-2.7-10.7-5.2-15.8-7.7c0-0.4,0-0.8,0-1.2c1-0.1,2.2-0.6,3-0.3c4.6,2.1,9.2,4.3,14,6.7c1.1-3,2.2-5.8,3.3-8.8
		c-5.3-1.6-10.3-3-15.2-4.5c0.1-0.4,0.1-0.7,0.2-1.1c5.5-2,10.3,2.7,16,2.3c0.5-2.7,1-5.5,1.5-8.6c-3.1-0.4-5.9-0.7-8.6-1
		c-6.2-0.8-6.2-0.8-6.8-3.3c5.2,0.5,10.3,0.9,15.5,1.4c0-3.3,0-6.3,0-9.4c-6.2,0.5-12.2,1.1-18.1,1.4c-2.2,0.1-4.8,1-6.5-2.3
		c8.4-0.7,16.5-1.3,24.9-2c-0.6-3.4-1.1-6.2-1.7-9.3c-9.4,2.4-18.3,4.8-27.4,6.9c-1.9,0.5-4.1,0-6.2,0c0-0.4,0-0.8,0-1.2
		c10.9-2.8,21.8-5.5,33-8.4c-1-3-2-5.9-3-8.9c-1.8,0.8-3.2,1.3-4.7,2c-9.7,4.4-19.4,8.7-29.1,13.1c-2.4,1.1-2.5,1-3.5-1.4
		c12-5.4,23.9-10.8,36.1-16.3c-1.7-2.9-3.2-5.5-4.8-8.1c-11,7.5-21.6,14.7-32.3,21.9c-2.3-2.3-0.3-3.1,1-4
		c9.8-6.7,19.6-13.3,29.8-20.2c-2-2.5-3.9-4.8-5.9-7.3c-9.4,9-18.5,17.8-27.6,26.6c-0.4-0.2-0.7-0.4-1.1-0.6
		c0.4-1.1,0.5-2.4,1.2-3.1c4.1-4.2,8.3-8.2,12.4-12.3c4.2-4.3,8.4-8.6,12.7-13.1c-2.2-1.8-4.4-3.7-6.8-5.7
		c-7.5,10.3-14.6,20.2-21.7,30.1c-0.4-0.2-0.9-0.3-1.3-0.5c0.3-1.2,0.3-2.6,0.9-3.5c4.9-6.9,9.9-13.8,14.8-20.7
		c1.7-2.3,3.2-4.7,5-7.3c-2.9-1.7-5.4-3.1-8.1-4.7c-5.4,11.2-10.7,21.9-15.9,32.6c-0.4-0.1-0.9-0.1-1.3-0.2c0-1.1-0.4-2.4,0.1-3.3
		c1.9-4.3,4.1-8.5,6.1-12.8c2.8-5.8,5.6-11.7,8.5-17.7c-3.1-1.2-5.8-2.2-8.8-3.3c-3.3,11.6-6.5,23-9.8,34.3
		c-0.4,0.1-0.8,0.1-1.2,0.2c-0.3-0.9-0.9-1.9-0.8-2.8c0.2-1.7,0.8-3.3,1.3-4.9c2.5-9,5.1-18.1,7.8-27.6C94,11,91.1,10.5,88,10
		c-1.2,12-2.4,23.5-3.6,35c-0.4,0.1-0.7,0.3-1.1,0.4c-0.5-0.8-1.5-1.6-1.4-2.4c0.1-3.1,0.6-6.2,0.9-9.3c0.8-7.9,1.6-15.8,2.4-23.9
		c-3.3,0-6.2,0-9.4,0c0.5,7.8,1.1,15.3,1.6,22.9c-0.5,0.1-1,0.3-1.5,0.4c-0.5-1.1-1.2-2.2-1.3-3.3c-0.6-6.6-1-13.2-1.5-20.2
		c-3.4,0.6-6.2,1.1-9.1,1.7c2.7,11.5,5.3,22.6,8,34c-0.4,0.1-1.2,0.4-2.2,0.7c-2.9-11.5-5.8-22.7-8.7-34.3c-3.2,1.2-5.9,2.2-8.7,3.2
		c0.4,1,0.6,1.6,0.8,2.2c4.2,9.3,8.3,18.5,12.5,27.8c0.7,1.6,1.2,3-1.6,3.2C59.1,37.5,54.3,26.9,49.4,16c-2.9,1.7-5.5,3.2-8.2,4.8
		c6.4,9.4,12.4,18.3,18.5,27.2c1,1.4,2.3,2.8-0.8,3.8C52.4,42,45.7,32.3,38.9,22.3c-2.6,2.1-4.8,4-7.2,5.9c0.6,0.7,1.1,1.3,1.6,1.8
		c7.3,7.6,14.7,15.2,22,22.7c1.3,1.3,2.2,2.4,0.4,3.2C46.8,47.5,38,39.2,29,30.8c-1.6,1.9-3.5,4.2-5.5,6.5c1.2,0.9,2.1,1.6,2.9,2.2
		c8.4,6.1,16.9,12.2,25.3,18.4c0.8,0.6,1,1.9,1.5,2.9c-0.4,0.2-0.8,0.4-1.2,0.6C42.1,54.2,32,47,21.7,39.6c-1.7,3-3.2,5.4-4.7,8.1
		c2.1,1,3.7,1.9,5.3,2.7c8.9,4.3,17.9,8.6,26.8,13c0.9,0.5,1.5,1.7,2.2,2.6c-0.3,0.3-0.6,0.6-0.9,0.9C39,61.4,27.5,55.9,15.7,50.2z"
		/>
</g>
</svg>
