<svg xmlns="http://www.w3.org/2000/svg" width="159.1" height="159"><style>.st0{fill:#fff}</style><g id="Camada_1"><path class="st0" d="M15.7 50.2C27.5 55.9 39 61.4 50.4 66.9l.9-.9c-.7-.9-1.3-2.2-2.2-2.6-8.9-4.4-17.8-8.7-26.8-13-1.6-.8-3.2-1.6-5.3-2.7 1.5-2.6 3-5.1 4.7-8.1C32 47 42.1 54.2 52.2 61.5l1.2-.6c-.5-1-.7-2.3-1.5-2.9-8.4-6.2-16.9-12.3-25.3-18.4-.9-.6-1.7-1.3-2.9-2.2 2-2.4 3.9-4.6 5.5-6.5C38.2 39.3 47 47.6 56 56c1.8-.9.8-1.9-.4-3.2-7.6-7.6-15-15.2-22.3-22.8-.5-.5-.9-1.1-1.6-1.8 2.3-1.9 4.5-3.8 7.2-5.9C45.7 32.3 52.4 42 59 51.7c3-.9 1.7-2.4.8-3.8-6.1-8.9-12.1-17.8-18.5-27.2 2.7-1.6 5.2-3.1 8.2-4.8C54.4 26.8 59.2 37.4 64 48c2.8-.2 2.3-1.5 1.6-3.2-4.2-9.3-8.4-18.5-12.5-27.8-.2-.5-.4-1.1-.8-2.2 2.8-1 5.6-2.1 8.7-3.2 2.9 11.6 5.8 22.7 8.7 34.3.9-.3 1.7-.6 2.2-.7-2.7-11.4-5.3-22.5-8-34 2.9-.5 5.8-1.1 9.1-1.7.5 7 .9 13.6 1.5 20.2.1 1.1.9 2.2 1.3 3.3.5-.1 1-.3 1.5-.4-.5-7.5-1-15.1-1.6-22.9h9.4c-.8 8.1-1.6 16-2.4 23.9-.3 3.1-.8 6.2-.9 9.3 0 .8.9 1.6 1.4 2.4.4-.1.7-.3 1.1-.4 1.2-11.5 2.4-23 3.6-35 3.2.5 6 1 9.3 1.6-2.7 9.5-5.2 18.6-7.8 27.6-.5 1.6-1.1 3.2-1.3 4.9 0 1 .6 2 .9 2.9.4-.1.8-.1 1.2-.2 3.2-11.3 6.5-22.7 9.8-34.3 3 1.1 5.7 2.1 8.8 3.3-2.9 6.1-5.7 11.9-8.5 17.7-2.1 4.3-4.2 8.5-6.1 12.8-.4.9-.1 2.2-.1 3.3.4.1.9.1 1.3.2 5.2-10.7 10.4-21.5 15.9-32.6 2.7 1.6 5.1 3 8.1 4.7-1.8 2.6-3.4 4.9-5 7.3-4.9 6.9-10 13.7-14.8 20.7-.6.9-.6 2.3-.9 3.5.4.2.9.3 1.3.5 7.1-9.9 14.3-19.7 21.7-30.1 2.4 2 4.6 3.9 6.8 5.7-4.3 4.5-8.5 8.8-12.7 13.1-4.1 4.1-8.4 8.1-12.4 12.3-.7.7-.8 2.1-1.2 3.1.4.2.7.4 1.1.6 9.1-8.8 18.2-17.6 27.6-26.6 2 2.5 3.9 4.8 5.9 7.3-10.2 6.9-20 13.6-29.8 20.2-1.3.9-3.2 1.7-1 4 10.6-7.2 21.2-14.4 32.3-21.9 1.6 2.7 3.1 5.2 4.8 8.1-12.2 5.5-24.2 10.9-36.1 16.3 1 2.4 1.1 2.5 3.5 1.4 9.7-4.3 19.4-8.7 29.1-13.1 1.4-.6 2.9-1.2 4.7-2 1 3 2 5.8 3 8.9-11.2 2.9-22.1 5.6-33 8.4v1.2c2.1 0 4.2.5 6.2 0 9.1-2.1 18.1-4.5 27.4-6.9a552 552 0 0 1 1.7 9.3c-8.4.7-16.5 1.3-24.9 2 1.7 3.3 4.3 2.4 6.5 2.3 5.9-.4 11.8-.9 18.1-1.4v9.4c-5.2-.5-10.3-.9-15.5-1.4.6 2.5.6 2.5 6.8 3.3 2.7.4 5.5.7 8.6 1-.6 3.1-1.1 5.9-1.5 8.6-5.7.4-10.5-4.3-16-2.3-.1.4-.1.7-.2 1.1 5 1.5 9.9 2.9 15.2 4.5-1.1 3-2.2 5.8-3.3 8.8-4.8-2.3-9.4-4.6-14-6.7-.8-.4-2 .1-3 .3v1.2c5.1 2.5 10.2 5 15.8 7.7-1.6 2.7-3 5.2-4.6 7.9-5.7-3.8-11-7.4-16.4-10.9-.2-.2-1.1.7-2 1.2 5.6 4.1 10.9 7.9 16.7 12.1-2.1 2.4-4 4.6-5.4 6.2-5.4-4.9-10.5-9.7-15.7-14.4-1.2-1.1-2.8-1.6-4.3-2.4-.3.4-.5.7-.8 1.1 5.9 6.2 11.8 12.3 17.9 18.7-2.4 2-4.7 3.8-7.2 5.9-6.8-9.9-13.4-19.5-20-29.1-.5.3-1.1.5-1.6.8.4 1.1.6 2.3 1.2 3.3 5.9 8.7 11.8 17.4 18 26.5-2.7 1.6-5.3 3.1-8.2 4.8-4.6-10.1-9.1-20-13.5-29.9h-1.2c-.1 1.2-.5 2.5-.1 3.5 3.3 7.8 6.9 15.5 10.3 23.2.6 1.3 1.1 2.6 1.8 4.3-3 1-5.9 2-8.9 3-2.7-10.4-5.2-20.5-7.8-30.4-3.5-.2-2.3 2-1.9 3.4 1.9 8 4 16 6 23.9.3 1.2.5 2.3.8 3.8-3 .5-5.8 1-9.1 1.6-.5-6-1-11.8-1.4-17.5-.3-3.9-.5-7.8-.9-11.6-.1-.9-1.1-1.7-1.7-2.5-.4.2-.7.4-1.1.7.7 10.1 1.5 20.2 2.2 30.7h-9.4c.8-8 1.6-15.9 2.4-23.8.2-1.8.4-3.6.4-5.4 0-.6-.6-1.3-1-1.9-.5.5-1.4 1-1.5 1.5-.5 3.4-.8 6.7-1.1 10.1-.6 6.3-1.3 12.5-1.9 19.3-3.2-.5-6-1-9.3-1.6 2.2-7.9 4.3-15.3 6.4-22.7.6-2.1 1.4-4.1 1.8-6.3.2-1-.4-2.1-.6-3.2h-1.3c-2.9 10.3-5.9 20.5-8.9 31.3-3-1.1-5.7-2.1-8.9-3.3 4.6-9.6 9.2-18.9 13.6-28.3.5-1.2.4-2.7.5-4-.5-.1-.9-.2-1.4-.3-5 10.3-10 20.6-15.2 31.3-2.7-1.6-5.2-3-8.1-4.8 5.1-7.1 10-13.9 14.9-20.8l-.6-.9c-1.2.8-2.8 1.3-3.6 2.3-4.3 5.7-8.4 11.5-12.9 17.6-2.4-2.1-4.7-4-7-6 4.8-4.8 9.3-9.5 13.9-14.1-.1-.3-.1-.6-.2-.9-1.3.4-2.9.4-3.7 1.3-3.8 3.9-7.5 8-11.5 12.3-2.6-3.2-4.5-5.4-6.6-8 4.9-3.4 9.5-6.5 14-9.6 0-.4-.1-.7-.1-1.1-1.1 0-2.4-.4-3.2.1-4.1 2.6-8 5.3-12.3 8.2-1.6-2.7-3-5.2-4.7-8.1 4.8-2.2 9.3-4.3 13.9-6.4v-1c-1.3-.1-2.7-.6-3.8-.2-3.7 1.4-7.3 3.1-11.2 4.9-1.1-3-2-5.7-2.9-8.4 4.5-3.1 10.8-1.4 14.4-5.6-.1-.4-.3-.8-.4-1.2-4.8 1.1-9.5 2.3-14.7 3.5-.5-3-1.1-5.9-1.7-9.2 6.5-.5 12.6-.9 18.8-1.5 1.6-.2 3.1-1.1 4.6-1.7l-.3-1.2c-7.5.5-15 1.1-22.8 1.6v-9.4c8.3.9 16.4 1.8 24.4 2.5 2.7.2 5.5-.2 8.2-.3v-1.6C31.7 73.3 21 72.2 9.9 71c.6-3.2 1.1-6 1.7-9.3 7.1 2 13.8 3.9 20.5 5.8 4.9 1.4 9.8 2.8 14.7 4.1.9.2 2-.3 3-.5-.8-.7-1.5-1.7-2.4-2-10-2.9-20-5.7-30-8.5-1.6-.5-3.2-1-5-1.6 1.1-3 2.1-5.7 3.3-8.8zm60.9-2.1C61.7 50.5 55.2 59.5 53 72.5c-.2 1-1.6 2.2-2.7 2.7-7.7 3.1-14.4 7.6-19.1 14.5-3.5 5.2-2.6 8.4 2.7 11.7 1.3.8 2.6 2.2 3.1 3.5 2.8 7.8 19.2 10.6 23.2 3.7 1.2-2.1 5.1-2.1 6.2.1 4.6 9.2 26.2 7.6 29.5-2 .8-2.3 4.4-2.9 6.2-1.3 6.4 5.7 20 1.9 22.2-6.4.6-2.4 1.8-3.7 3.4-5.1 4.4-3.9 4.5-6.5.4-10.7-5.9-6-13.1-9.8-21.2-12.1-1.1-.3-2.6-1.4-3-2.4-4.1-12.5-11.8-20.4-26.7-20.6.5-2.7 1.1-5.1 1.4-7.6.1-1.2-.1-3.1-.8-3.5-1-.5-2.9-.3-3.8.4-.6.5-.5 2.4-.2 3.5.8 2.3 1.8 4.5 2.8 7.2z"/><path class="st0" d="M105.6 103.5c5-1.7 9.7-3.2 14.9-4.9l-14.9 4.9z"/><path d="M76.6 48.1c-1-2.7-2-4.9-2.7-7.2-.3-1.1-.4-3 .2-3.5.9-.7 2.8-.9 3.8-.4.7.4.9 2.3.8 3.5-.3 2.5-.9 4.9-1.4 7.6 14.9.2 22.5 8.1 26.7 20.6.3 1 1.8 2.1 3 2.4 8.1 2.3 15.3 6.1 21.2 12.1 4.1 4.1 4 6.7-.4 10.7-1.6 1.4-2.8 2.8-3.4 5.1-2.2 8.3-15.8 12.1-22.2 6.4-1.8-1.6-5.4-1-6.2 1.3-3.2 9.7-24.8 11.3-29.5 2-1.1-2.2-5-2.2-6.2-.1-4 6.9-20.4 4.2-23.2-3.7-.5-1.4-1.8-2.7-3.1-3.5-5.3-3.3-6.2-6.5-2.7-11.7 4.7-7 11.4-11.4 19.1-14.5 1.1-.4 2.6-1.6 2.7-2.7 2.2-13 8.7-22 23.5-24.4zM51.1 78.7c-7.2 2.9-13 7.1-17.2 13.3-1.8 2.5-1.4 4.7 1.4 5.9 2.9 1.4 6 2.8 9.1 3.4 21.9 4.5 43.6 3.1 65-2.9 5.4-1.5 10.5-4.2 15.5-6.8 2.3-1.1 3.8-3.2 1.2-5.8-5.4-5.3-11.8-9.1-17.7-10.7-4.2 2.7-7.2 5.2-10.6 6.6-10.8 4.2-22.2 4.7-33.6 3.4-4.9-.5-9.9-1.5-13.1-6.4zM74 82.3c0-.2 0-.3.1-.5 1.3 0 2.7.1 4 0 7.1-.6 14.3-1.3 20.7-4.8 1.4-.7 3.2-2.8 3-3.9-2.7-15-13.7-25.7-30-20.8-10.1 3.1-14.1 11-15.5 20.8-.7 5.3-.3 6.1 5 7.2 4 1 8.4 1.3 12.7 2zm-3.3 25.3c4.7 5.5 17.5 4.5 20.8-1.5-6.8.5-13.7 1-20.8 1.5zm49.8-9c-5.2 1.7-9.9 3.3-14.9 4.9 5.5 2.2 11 .4 14.9-4.9zM56.3 107c-5.3-.9-10.1-1.7-15-2.6 3.6 4.6 10.4 5.8 15 2.6z"/><path d="M72.3 55.7c4.7-3.6 12.9-2.5 18 1.5 5.3 4.2 8.8 12.4 6.5 17.4-2-14.3-9.6-20.9-24.5-18.9z"/></g><path d="M79.5 159C35.3 159 0 123.7 0 79.6 0 35.3 35.4.2 79.7 0c43.4-.2 80 36.2 79.4 80.8-.6 43-36 78.2-79.6 78.2zM80.8 2.4C40.1 2.1 3.6 33.2 2.5 78.3c-.9 40.1 29.8 76.4 74.3 78.2 41.5 1.7 78.1-30 79.7-74.6C158 40.4 125.8 4 80.8 2.4z" id="Camada_3"/><path d="M79.4 152.4c-40.3 0-72.8-32.5-72.8-72.8C6.7 39 39.2 6.7 80.1 6.7c39.4.1 72.7 32.7 72.3 74.1-.4 39.1-33.1 71.6-73 71.6zM15.7 50.2c-1.2 3.1-2.2 5.8-3.4 8.7 1.8.6 3.4 1.1 5 1.6 10 2.8 20 5.6 30 8.5.9.3 1.6 1.3 2.4 2-1 .2-2.1.8-3 .5-4.9-1.2-9.8-2.7-14.7-4.1-6.7-1.9-13.4-3.8-20.5-5.8-.6 3.3-1.1 6.1-1.7 9.3 11.1 1.2 21.8 2.3 32.5 3.4v1.6c-2.7.1-5.5.5-8.2.3-8.1-.7-16.1-1.6-24.4-2.5v9.4c7.7-.5 15.3-1.1 22.8-1.6l.3 1.2c-1.5.6-3 1.5-4.6 1.7-6.1.6-12.3 1-18.8 1.5.6 3.3 1.1 6.2 1.7 9.2 5.2-1.2 10-2.4 14.7-3.5.1.4.3.8.4 1.2-3.7 4.2-9.9 2.6-14.4 5.6.9 2.6 1.9 5.4 2.9 8.4 4-1.7 7.5-3.5 11.2-4.9 1.1-.4 2.5.1 3.8.2v1c-4.5 2.1-9.1 4.2-13.9 6.4 1.7 2.9 3.1 5.4 4.7 8.1 4.3-2.9 8.2-5.7 12.3-8.2.8-.5 2.1-.1 3.2-.1 0 .4.1.7.1 1.1-4.6 3.1-9.1 6.3-14 9.6 2.1 2.5 4 4.8 6.6 8 4-4.4 7.7-8.5 11.5-12.3.8-.8 2.5-.9 3.7-1.3.1.3.1.6.2.9-4.6 4.7-9.2 9.3-13.9 14.1 2.3 2 4.6 3.9 7 6 4.5-6.1 8.6-12 12.9-17.6.8-1.1 2.4-1.6 3.6-2.3l.6.9c-4.9 6.8-9.8 13.7-14.9 20.8 2.9 1.7 5.4 3.2 8.1 4.8 5.2-10.7 10.2-21 15.2-31.3.5.1.9.2 1.4.3-.2 1.3 0 2.8-.5 4-4.4 9.4-9 18.7-13.6 28.3 3.1 1.2 5.9 2.2 8.9 3.3 3.1-10.7 6-21 8.9-31.3h1.3c.2 1.1.8 2.2.6 3.2-.4 2.1-1.2 4.2-1.8 6.3-2.1 7.4-4.2 14.8-6.4 22.7 3.3.6 6.2 1 9.3 1.6.7-6.8 1.3-13.1 1.9-19.3.3-3.4.7-6.8 1.1-10.1.1-.6 1-1 1.5-1.5.3.6 1 1.3 1 1.9 0 1.8-.2 3.6-.4 5.4-.8 7.9-1.6 15.8-2.4 23.8h9.4c-.8-10.4-1.5-20.5-2.2-30.7.4-.2.7-.4 1.1-.7.6.8 1.6 1.6 1.7 2.5.4 3.9.6 7.7.9 11.6.5 5.8.9 11.5 1.4 17.5 3.3-.6 6.1-1.1 9.1-1.6-.3-1.5-.6-2.7-.8-3.8-2-8-4.1-15.9-6-23.9-.3-1.4-1.6-3.6 1.9-3.4 2.5 10 5.1 20 7.8 30.4 3-1 5.8-2 8.9-3-.7-1.7-1.3-3-1.8-4.3-3.5-7.7-7-15.4-10.3-23.2-.4-1 .1-2.3.1-3.5h1.2c4.5 9.9 8.9 19.8 13.5 29.9 2.9-1.7 5.4-3.2 8.2-4.8-6.2-9.1-12.2-17.8-18-26.5-.6-.9-.8-2.2-1.2-3.3.5-.3 1.1-.5 1.6-.8 6.6 9.6 13.2 19.2 20 29.1 2.5-2.1 4.8-3.9 7.2-5.9-6.1-6.3-12-12.5-17.9-18.7.3-.4.5-.7.8-1.1 1.4.8 3.1 1.4 4.3 2.4 5.3 4.7 10.4 9.5 15.7 14.4 1.3-1.5 3.3-3.8 5.4-6.2-5.8-4.2-11.1-8.1-16.7-12.1.9-.6 1.8-1.4 2-1.2 5.4 3.5 10.8 7.1 16.4 10.9 1.6-2.7 3.1-5.2 4.6-7.9-5.6-2.7-10.7-5.2-15.8-7.7v-1.2c1-.1 2.2-.6 3-.3 4.6 2.1 9.2 4.3 14 6.7 1.1-3 2.2-5.8 3.3-8.8-5.3-1.6-10.3-3-15.2-4.5.1-.4.1-.7.2-1.1 5.5-2 10.3 2.7 16 2.3.5-2.7 1-5.5 1.5-8.6-3.1-.4-5.9-.7-8.6-1-6.2-.8-6.2-.8-6.8-3.3 5.2.5 10.3.9 15.5 1.4v-9.4c-6.2.5-12.2 1.1-18.1 1.4-2.2.1-4.8 1-6.5-2.3 8.4-.7 16.5-1.3 24.9-2a552 552 0 0 0-1.7-9.3c-9.4 2.4-18.3 4.8-27.4 6.9-1.9.5-4.1 0-6.2 0v-1.2c10.9-2.8 21.8-5.5 33-8.4-1-3-2-5.9-3-8.9-1.8.8-3.2 1.3-4.7 2-9.7 4.4-19.4 8.7-29.1 13.1-2.4 1.1-2.5 1-3.5-1.4 12-5.4 23.9-10.8 36.1-16.3-1.7-2.9-3.2-5.5-4.8-8.1-11 7.5-21.6 14.7-32.3 21.9-2.3-2.3-.3-3.1 1-4 9.8-6.7 19.6-13.3 29.8-20.2-2-2.5-3.9-4.8-5.9-7.3-9.4 9-18.5 17.8-27.6 26.6-.4-.2-.7-.4-1.1-.6.4-1.1.5-2.4 1.2-3.1 4.1-4.2 8.3-8.2 12.4-12.3 4.2-4.3 8.4-8.6 12.7-13.1-2.2-1.8-4.4-3.7-6.8-5.7-7.5 10.3-14.6 20.2-21.7 30.1-.4-.2-.9-.3-1.3-.5.3-1.2.3-2.6.9-3.5 4.9-6.9 9.9-13.8 14.8-20.7 1.7-2.3 3.2-4.7 5-7.3-2.9-1.7-5.4-3.1-8.1-4.7-5.4 11.2-10.7 21.9-15.9 32.6-.4-.1-.9-.1-1.3-.2 0-1.1-.4-2.4.1-3.3 1.9-4.3 4.1-8.5 6.1-12.8 2.8-5.8 5.6-11.7 8.5-17.7-3.1-1.2-5.8-2.2-8.8-3.3-3.3 11.6-6.5 23-9.8 34.3-.4.1-.8.1-1.2.2-.3-.9-.9-1.9-.8-2.8.2-1.7.8-3.3 1.3-4.9 2.5-9 5.1-18.1 7.8-27.6-2.9-.5-5.8-1-8.9-1.5-1.2 12-2.4 23.5-3.6 35-.4.1-.7.3-1.1.4-.5-.8-1.5-1.6-1.4-2.4.1-3.1.6-6.2.9-9.3.8-7.9 1.6-15.8 2.4-23.9h-9.4c.5 7.8 1.1 15.3 1.6 22.9-.5.1-1 .3-1.5.4-.5-1.1-1.2-2.2-1.3-3.3-.6-6.6-1-13.2-1.5-20.2-3.4.6-6.2 1.1-9.1 1.7 2.7 11.5 5.3 22.6 8 34-.4.1-1.2.4-2.2.7-2.9-11.5-5.8-22.7-8.7-34.3-3.2 1.2-5.9 2.2-8.7 3.2.4 1 .6 1.6.8 2.2 4.2 9.3 8.3 18.5 12.5 27.8.7 1.6 1.2 3-1.6 3.2-5-10.6-9.8-21.2-14.7-32.1-2.9 1.7-5.5 3.2-8.2 4.8 6.4 9.4 12.4 18.3 18.5 27.2 1 1.4 2.3 2.8-.8 3.8-6.5-9.8-13.2-19.5-20-29.5-2.6 2.1-4.8 4-7.2 5.9.6.7 1.1 1.3 1.6 1.8 7.3 7.6 14.7 15.2 22 22.7 1.3 1.3 2.2 2.4.4 3.2C46.8 47.5 38 39.2 29 30.8c-1.6 1.9-3.5 4.2-5.5 6.5 1.2.9 2.1 1.6 2.9 2.2 8.4 6.1 16.9 12.2 25.3 18.4.8.6 1 1.9 1.5 2.9l-1.2.6C42.1 54.2 32 47 21.7 39.6c-1.7 3-3.2 5.4-4.7 8.1 2.1 1 3.7 1.9 5.3 2.7 8.9 4.3 17.9 8.6 26.8 13 .9.5 1.5 1.7 2.2 2.6l-.9.9c-11.4-5.5-22.9-11-34.7-16.7z" id="Camada_2"/></svg>