<svg id="Camada_1" data-name="Camada 1" xmlns="http://www.w3.org/2000/svg" viewBox="0 0 199.99 275.93"><defs><style>.cls-1{fill:#ff004f;}</style></defs><title>skills</title><path class="cls-1" d="M79,258.17c-9.3,0-18.29-.16-27.27.08-3.65.1-5-1.38-5.55-4.73-1.23-7.89-2.59-15.77-4-23.62-.68-3.73.59-5.18,4.42-5.11,9,.16,17.92.05,27.55.05v-6.27q0-71-.07-142a11.85,11.85,0,0,1,3.37-8.89c8.07-8.63,15.92-17.48,23.74-26.34,2.67-3,4.77-3.41,7.65-.11,8,9.15,16.36,18,24.27,27.21a12.45,12.45,0,0,1,2.75,7.46c.16,47.49.12,95,.12,142.46v6.43c9.26,0,18.05.21,26.82-.09,4.6-.15,5.95,1.44,5.09,5.84-1.46,7.51-2.8,15.06-3.89,22.63-.52,3.64-2,5.12-5.81,5-9-.24-17.95-.08-27.33-.08-1.33,10.09-2.61,19.8-3.88,29.52-1,7.76-1.82,15.55-3.15,23.25-.26,1.48-2.48,3.68-3.86,3.72-9.82.32-19.66.09-29.49.22-3.78,0-4.19-2.24-4.55-5.14-2-16.19-4.07-32.37-6.15-48.55A29,29,0,0,0,79,258.17Zm24.46-33.6V173.5c0-17.16-.07-34.33,0-51.49.09-16.65-.41-33.33.28-50l3,0q.06,76.24,0,152.38H130.5a19.79,19.79,0,0,0,.3-2.3q0-73,0-146a7.28,7.28,0,0,0-1.57-4.45c-7.79-8.86-15.75-17.58-24.65-27.44a37.21,37.21,0,0,1-2.91,4.43c-6.31,7.09-12.88,14-19,21.23a13.39,13.39,0,0,0-3,7.87c-.18,47.16-.13,94.31-.11,141.47,0,1.74.24,3.48.37,5.28ZM158.72,253l3.89-22.85H47.6L51.49,253c9.38,0,18.51.15,27.62-.08,3.61-.09,5.1,1.19,5.46,4.69.66,6.46,1.59,12.88,2.43,19.32,1.4,10.84,2.81,21.68,4.24,32.66h27.63c.39-2.62.8-5.05,1.12-7.5,1.92-14.69,4-29.36,5.62-44.09.47-4.25,2.3-5.17,6.11-5.08C140.53,253.14,149.35,253,158.72,253Z" transform="translate(-42.01 -38.94)"/><path class="cls-1" d="M226.83,164.8H242c0,7.54.12,14.63-.16,21.71,0,.82-2.23,2.11-3.5,2.22-3.6.3-7.24.11-11.26.11l-.85,15h-23.6v-15c-4.43,0-8.25.3-12-.16-1.32-.16-3.35-2.14-3.43-3.4a129.53,129.53,0,0,1,0-17c.08-1.22,2.12-3.14,3.42-3.3,3.73-.45,7.55-.16,11.91-.16,0-4.25.08-7.88,0-11.5-.09-2.85.81-4.32,4-4.22,5.49.17,11,.12,16.48,0,2.78,0,3.94,1.17,3.91,3.88C226.79,156.8,226.83,160.57,226.83,164.8Zm-3.66-11.68H206c0,3.33-.23,6.47.06,9.56.37,4-.84,5.84-5.17,5.39a98.76,98.76,0,0,0-10-.07v17.17c3.93,0,7.56.08,11.17,0,3-.09,4.18,1.14,4,4.16-.18,3.74,0,7.49,0,11.28h17.17c0-4,.1-7.77,0-11.54-.09-2.79,1.12-3.93,3.84-3.88,3.77.07,7.55,0,11.55,0V168c-3.92,0-7.55-.19-11.16.05-3.36.23-4.42-1.16-4.24-4.34C223.31,160.28,223.17,156.83,223.17,153.12Z" transform="translate(-42.01 -38.94)"/><path class="cls-1" d="M186.07,123.24H196c0,4.94.08,9.59-.11,14.23,0,.54-1.46,1.38-2.29,1.45-2.36.2-4.75.07-7.38.07l-.56,9.83H170.17V139a65.92,65.92,0,0,1-7.85-.11,3.3,3.3,0,0,1-2.25-2.23,84.9,84.9,0,0,1,0-11.12,3.25,3.25,0,0,1,2.24-2.16,67.46,67.46,0,0,1,7.8-.1c0-2.79.06-5.16,0-7.54-.06-1.87.53-2.83,2.61-2.76,3.6.11,7.2.08,10.8,0,1.82,0,2.59.77,2.56,2.54C186,118,186.07,120.47,186.07,123.24Zm-2.4-7.66H172.42c0,2.18-.15,4.24,0,6.27.24,2.63-.55,3.83-3.39,3.53a64.73,64.73,0,0,0-6.59,0V136.6c2.58,0,5,.05,7.32,0,2-.06,2.74.75,2.64,2.73-.12,2.45,0,4.91,0,7.39h11.25c0-2.62.06-5.1,0-7.56-.06-1.83.74-2.58,2.52-2.55,2.47,0,4.95,0,7.57,0V125.34c-2.57,0-5-.12-7.31,0-2.2.15-2.9-.76-2.78-2.84C183.76,120.28,183.67,118,183.67,115.59Z" transform="translate(-42.01 -38.94)"/><path class="cls-1" d="M231,94.41h11c0,5.49.09,10.65-.12,15.81,0,.6-1.62,1.54-2.55,1.62-2.62.22-5.27.08-8.2.08l-.62,10.92H213.31V111.9a73.22,73.22,0,0,1-8.72-.12,3.66,3.66,0,0,1-2.5-2.48,94.31,94.31,0,0,1,0-12.35,3.61,3.61,0,0,1,2.49-2.4,74.93,74.93,0,0,1,8.67-.12c0-3.1.06-5.74,0-8.37-.06-2.08.59-3.14,2.9-3.07,4,.12,8,.09,12,0,2,0,2.87.86,2.84,2.82C230.94,88.58,231,91.33,231,94.41Zm-2.67-8.51H215.8c0,2.43-.17,4.71,0,7,.27,2.92-.62,4.25-3.77,3.93a71.91,71.91,0,0,0-7.31,0v12.5c2.86,0,5.5.06,8.13,0,2.17-.07,3,.83,2.94,3-.13,2.72,0,5.45,0,8.21h12.5c0-2.91.07-5.66,0-8.4-.07-2,.82-2.86,2.79-2.83,2.75,0,5.5,0,8.41,0V96.74c-2.85,0-5.5-.14-8.13,0-2.45.17-3.22-.85-3.09-3.16C228.41,91.12,228.3,88.61,228.3,85.91Z" transform="translate(-42.01 -38.94)"/></svg>