<svg id="Camada_1" data-name="Camada 1" xmlns="http://www.w3.org/2000/svg" viewBox="0 0 318 319"><defs><style>.cls-1{fill:#ff004f;}</style></defs><title>ui</title><path class="cls-1" d="M156,16H276.91C290.53,16,297,22.53,297,36.26q0,120.7,0,241.39c0,14-6.41,20.34-20.52,20.34H35.59C21.27,298,15,291.67,15,277.23q0-120.45,0-240.89C15,22.35,21.41,16,35.51,16Zm-.47,275.17q60.49,0,121,0c10.4,0,13.68-3.32,13.69-13.82q0-120.23,0-240.45c0-10.87-3.15-14-13.94-14H35.77C25,22.84,21.84,26,21.84,36.9q0,120,0,240c0,11.21,3.07,14.31,14.18,14.31Z"/><path class="cls-1" d="M111.1,216.24h3.23c24.78,0,49.55,0,74.33.06,2.53,0,3.48-.64,3.17-3.18a11.83,11.83,0,0,1,.16-4.26c.2-.78,1.42-2,1.9-1.87a3.32,3.32,0,0,1,2.19,2,28.47,28.47,0,0,1,.14,5.41c0,4.57,0,9.15,0,13.72-.09,7.53-5.29,12.79-12.8,12.8q-32.45.07-64.89,0c-7.44,0-12.55-5.16-12.56-12.61q0-67.61,0-135.22c0-7.58,5.1-12.81,12.69-12.83q32.3-.1,64.61,0c7.68,0,12.91,5.37,13,13,.05,9.43,0,18.87,0,28.3,0,.48.17,1.1-.06,1.4a28.4,28.4,0,0,1-2.31,2.37c-.66-.79-1.86-1.55-1.9-2.37-.21-4.18-.1-8.38-.15-12.57-.07-5.77.88-5.13-5.18-5.13-24,0-48,0-72-.07-2.69,0-3.55.61-3.54,3.44q.15,52.17.07,104.35C111.1,213.95,111.1,214.89,111.1,216.24Zm0-116h75.24c5.44,0,5.44,0,5.43-5.38,0-7.46-2.31-9.77-9.73-9.78H120.31a20.32,20.32,0,0,0-3.13.17,7.09,7.09,0,0,0-6,6.33C111,94.37,111.12,97.12,111.12,100.28Zm40.34,121.06H117.18c-6.09,0-6.09,0-6.08,6.21,0,6.5,2.45,9,8.92,9,19.9,0,39.81-.28,59.7.11,10.87.21,12.38-3.87,12.15-12.17-.07-2.57-.84-3.2-3.28-3.17C176.22,221.4,163.84,221.34,151.46,221.34Z"/><path class="cls-1" d="M195.85,133.08a44.32,44.32,0,0,1,6.75.87c5.54,1.56,7.67,6.61,5,11.7a31.12,31.12,0,0,1-3.36,4.59c-2.14,2.71-2.17,5.6,0,7.69s5,2.09,7.72-.1a29.49,29.49,0,0,1,3.61-2.78c6.11-3.52,12.78-.51,13.26,6.53.35,5.11.2,10.61-1.3,15.45a32.48,32.48,0,0,1-33,23.09,33.53,33.53,0,0,1,1.35-67Zm2.08,62c9.35-.28,18-5.54,23.4-16a26.21,26.21,0,0,0,2.75-15.54c-.23-1.76-1.39-4.08-2.8-4.8-1.13-.57-3.34.79-5,1.5a12.83,12.83,0,0,0-2.23,1.76,10.06,10.06,0,0,1-13.71-1.16,10.2,10.2,0,0,1-.35-13.58,36.19,36.19,0,0,0,2.32-2.9c2.22-3.4,1.15-6.07-2.91-6.46a33.44,33.44,0,0,0-9.93.28,28.25,28.25,0,0,0-22.56,31.13C168.52,184.24,180.46,194.94,197.93,195.07Z"/><path class="cls-1" d="M216.57,148a9,9,0,0,1-2.83-.07c-.78-.27-1.8-1-1.94-1.72s.42-1.86.79-2.77,1.33-2,1.35-3c.12-7.52,0-15,.1-22.56a3.51,3.51,0,0,0-1.94-3.64c-4.28-2.46-4.47-6.68-4.32-11a33.08,33.08,0,0,0-.2-7.37c-.3-1.55-1.59-2.94-2.58-4.3-1.48-2-1-3.91,1.27-4.33,5.92-1.1,14.69,3.25,17.33,8.78a18.24,18.24,0,0,1,1.15,13.61c-.6,1.88-2.7,3.25-4,4.93a5.32,5.32,0,0,0-1.46,2.65c-.11,7.9-.09,15.8,0,23.7a5,5,0,0,0,.87,2.09c.58,1,1.23,2,1.85,3.07a34.56,34.56,0,0,1-3.42,1.94,5.33,5.33,0,0,1-2,0ZM213,93.5c0,4.76-.13,9.49.06,14.21.09,2.14,1.59,3.44,3.84,3.42a3.61,3.61,0,0,0,3.86-3.76,26.29,26.29,0,0,0-1.09-8.12A8.57,8.57,0,0,0,213,93.5Z"/><path class="cls-1" d="M151.06,226.47c.85,0,1.7,0,2.55,0,1.64,0,3,.75,2.66,2.47a3.86,3.86,0,0,1-2.42,2.44,12,12,0,0,1-5.33,0,3.58,3.58,0,0,1-2.34-2.44c0-.79,1.38-1.83,2.37-2.39.64-.37,1.66-.07,2.51-.07Z"/><path class="cls-1" d="M185.77,145.1a7,7,0,0,1,7.11,6.71,7.38,7.38,0,0,1-7,7.49,7.26,7.26,0,0,1-7.09-7.11A7,7,0,0,1,185.77,145.1Zm2.67,6.7c-1.31-.77-2.19-1.7-2.91-1.59s-1.29,1.24-1.92,1.93c.76.65,1.47,1.73,2.3,1.82C186.53,154,187.29,152.84,188.44,151.8Z"/><path class="cls-1" d="M192.63,174.59c4.3,0,7.16,2.66,7.21,6.71a7,7,0,0,1-6.88,7.19,7.38,7.38,0,0,1-7.28-7.25C185.72,177.25,188.49,174.6,192.63,174.59Zm.56,4.27c-1.12,1.2-2.25,1.88-2.26,2.56a2.67,2.67,0,0,0,1.74,2c.59.1,1.8-.92,2-1.62S193.91,180.22,193.19,178.85Z"/><path class="cls-1" d="M202.43,175.87a6.64,6.64,0,0,1,6.74-7,7.08,7.08,0,0,1,7.2,7,7.28,7.28,0,0,1-7,7.19A7.05,7.05,0,0,1,202.43,175.87Zm9.76.29c-1.3-1-2.1-2.06-2.79-2a2.71,2.71,0,0,0-1.88,1.91c0,.65,1.11,1.81,1.84,1.91S210.87,177.06,212.18,176.16Z"/><path class="cls-1" d="M187.32,169.53c0,4.05-2.8,6.91-6.7,6.91a7.11,7.11,0,0,1-7.14-7.27,6.93,6.93,0,0,1,13.84.36Zm-3.8-.42c-1.43-.89-2.28-1.83-3.14-1.82-.57,0-1.59,1.35-1.56,2.07a2.56,2.56,0,0,0,1.86,1.75C181.41,171.11,182.17,170.11,183.51,169.11Z"/></svg>