<svg id="Camada_1" data-name="Camada 1" xmlns="http://www.w3.org/2000/svg" viewBox="0 0 361 349"><defs><style>.cls-1{fill:#ff004f;}</style></defs><title>work</title><path class="cls-1" d="M149.16,86.33c0-16.64,0-32.43,0-48.22,0-7.11.07-6.51,7.18-7.24,14.38-1.47,27,2.8,38.64,10.6,17,11.39,33.93,22.85,50.49,34.84,4.73,3.42,8.28,8.6,11.94,13.32,3.78,4.87,5.19,10.66,5.13,16.88-.19,19.65-.18,39.31-.44,59a7.53,7.53,0,0,0,3.87,7.26c22.78,15.06,45.44,30.29,68.13,45.48,6.93,4.64,7,12,.16,16.78q-43.46,30.24-86.87,60.56c-3.17,2.22-5.51,2.63-8.87.42-5-3.26-10.39-8.26-15.51-8.13-4.89.12-9.66,5.83-14.46,9.12-5.36,3.67-10.67,7.4-16,11.07A28.43,28.43,0,0,1,176.07,313a20.49,20.49,0,0,0-8.74,1.91c-11.23,5.57-22.37,5.6-32.85-1.08-28.77-18.34-57.19-37.24-86-55.54C34.94,249.66,30,236.89,29.27,222c-.54-11.14-.37-22.33,0-33.48.39-13.3,7-22.47,18.7-29.06,9.21-5.19,17.53-12,26.11-18.29.94-.69,1.33-2.59,1.39-4,.17-4.33.06-8.66.07-13,0-18.22,7.86-32.25,23.7-41.07,15.69-8.74,31.57-7.87,47,1.44Zm16.44,223.93c-7.79-5-12.92-11.12-13.61-19.64-.66-8.11-.47-16.3-.38-24.45,0-1.26,1.49-2.51,2.28-3.76.75,1.26,2.11,2.5,2.15,3.79.23,6.32.16,12.66.1,19-.1,9.09,3.32,16.33,11.52,20.58s16,2.87,23.47-2.37c13.61-9.58,27.36-19,41-28.49,8.69-6.07,10.93-17.07,5.28-25.39-5.83-8.58-17.08-10.55-26-4.36-6,4.18-11.89,8.56-17.75,13-3.75,2.8-3.26,5.63.94,7.83,1.13.59,1.77,2.12,2.64,3.21-1.49.33-3.11,1.22-4.43.88-4.52-1.15-6.13-4.64-6.37-9-.6-10.87-3.16-21.11-10.54-29.5-12.15-13.82-24.45-27.5-37-41.61-5.18,1.71-12.19,1.62-17.29,7.12-1.51,1.63-4.9,2-7.46,2.07-16.33.59-31.53-10.36-36.8-26.24-1.24-3.75-1.45-9.13-4-10.8-3-1.9-8-.5-12.21-.53h-1c-14.28.52-25.64,11.42-26.08,25.77-.39,12.48-.63,25,.13,37.46.63,10.29,3.64,20.44,12.8,26.52Q91.94,281,137.4,310C146.16,315.65,155.56,315.55,165.61,310.27Zm-86-168.58.45,0c0,6.66-.22,13.33,0,20a33.74,33.74,0,0,0,30.52,32.74c9.17,1,14.36-3.43,14.53-12.58.1-5.66,0-11.32,0-17,0-12.77,3.07-16.24,15.61-17.7a24.51,24.51,0,0,0,21.89-24.43c0-20.46-16.47-38.61-36.81-40.63C104.36,80,84.34,94.46,81,115.33,79.67,124,80,132.89,79.59,141.69Zm83.92-85.75c0,8.11-.11,14.9,0,21.68.24,12.73-1.41,25.6,3.07,38a18.48,18.48,0,0,1,.48,7.92c-.33,3.12,1,4.73,3.42,6.38,18.6,12.58,37.11,25.3,55.66,38,1.43,1,2.9,1.9,5,3.28,0-22.77.05-44.56-.12-66.35,0-1.4-1.49-3.19-2.78-4.12-8.8-6.28-17.73-12.38-26.63-18.52ZM259,225.5c10.26,10.88,9.13,20.42-2.47,28.54-2.86,2-5.83,3.84-8.72,5.8-.94.64-2.43,1.35-2.53,2.18a23.51,23.51,0,0,1-10.7,17.11c8.45,5.93,8.44,5.9,16.24.45q38.47-26.86,77-53.69c1.42-1,2.78-2.07,4.45-3.32l-69.73-46.65c-1,6.18,2.12,12.93-5.68,16.5a17.59,17.59,0,0,0,8.3.87c6.3-1.15,11.19.79,13.42,5.78,2.32,5.2.42,10.38-5.17,14a34.52,34.52,0,0,0-4.63,2.93C265.34,219.08,262.18,222.34,259,225.5Zm-97.61-84.17-1.9.28c-.1,4,0,8-.36,12s1.07,6.59,4.52,9c22.43,15.57,44.68,31.41,67,47.16,4.9,3.46,4.9,4.33-.09,7.72-8,5.43-16,10.76-24,16.24-2.45,1.69-4.46,2.2-7.12.15-7.53-5.78-15.25-11.31-22.91-16.92q-8.94-6.55-17.9-13.07c11.53,16.36,30,27.83,31.83,50.82,6.5-4.75,12-8.74,17.5-12.8a25,25,0,0,1,16.84-5,13,13,0,0,0,6.39-1.7c4.82-2.56,9.16-6.88,14.23-7.93,6.39-1.32,10.56-3.67,14.22-9.2,2.58-3.9,7.7-6.12,11.66-9.12,2.53-1.92,4.48-4.11,3-7.61-1.4-3.32-4.1-4.41-7.33-3.52-5.42,1.5-10.16.35-14.81-3.31-5.22,6.85-9.87,3.68-15.15-.21-11.39-8.4-23.13-16.3-34.74-24.41ZM247.51,192c5.35-3.61,10.33-5.26,10.19-12.77-.43-22.81-.42-45.64.33-68.44.37-11.2-3.35-20.19-11.5-26.91-11.77-9.71-24-19-36.64-27.51A282.57,282.57,0,0,0,177,37.79c-4.53-2.22-10.27-2-15.46-2.85l-.41,1.72c1.28,1,2.52,2,3.84,2.86,26,18,52,36,78.1,53.87,3.29,2.25,4.58,4.61,4.56,8.55-.14,28-.08,56-.08,84Zm-4.67.53v-6c0-27.49-.08-55,.09-82.46,0-3.76-1.08-6-4.2-8.13C211.78,77.63,185,59,158.12,40.52c-1.15-.8-2.42-1.44-4.12-2.44,0,17.28-.15,33.92.17,50.54,0,2.37,2.38,4.71,3.65,7.06C159,81.41,159,67.76,159.06,54.1c0-1.51.79-3,1.22-4.51,1.49.51,3.18.72,4.42,1.58q34.17,23.46,68.18,47.15a8,8,0,0,1,3,5.58c.2,23.15.16,46.31.07,69.46,0,1.5-.87,3-1.33,4.49-1.5-.51-3.2-.73-4.47-1.58-9.95-6.68-19.81-13.49-29.7-20.26l-34.49-23.57-2.24,4.82Zm-83.31-27.31c-2.38,3.63-1.45,5.6,1.66,7.74q26.53,18.28,52.75,37c1.6,1.14,2.44,3.35,3.63,5.06-2.14-.48-4.66-.41-6.37-1.54-8-5.34-15.86-11-23.77-16.56l-31.58-22.11-4,5.93c1.39,1.06,2.66,2.1,4,3q23.51,16.51,47,33c1.23.86,2.7,1.53,3.6,2.66.77,1,.86,2.47,1.26,3.74a19.5,19.5,0,0,1-4-.19,8.72,8.72,0,0,1-2.47-1.66c-16.63-11.67-33.29-23.29-49.86-35-2.72-1.93-4.62-2-6.37.86.19.45.23.86.45,1Q173.21,208.68,201,229a3.84,3.84,0,0,0,3.47.23c7.75-5.05,15.39-10.29,23.44-15.74Zm-5.1-16.82c-5.9,1.25-11.82,2.47-17.72,3.79-3.77.84-6.56,3.08-6.67,7.06-.24,9.12-.08,18.24-.08,27.36C147.14,186.41,157.76,169.25,154.42,148.45Zm91.43,107.73c4.56-3.71,9.63-6.68,13-11,2-2.61,2.48-7.63,1.54-11-1.09-3.89-5.9-4.58-9.39-3.46-6,1.94-11.65,4.86-17.59,7.43,3.14,3.4,5.65,5.61,7.5,8.28S243.9,252.3,245.85,256.19Zm-.91,33.16,1.08,1.39,88.33-61.55-1-1.49ZM75.19,146.23,61.35,156.54H75.19ZM227.59,284l13.15,7.72C238.58,286.06,231.7,282.28,227.59,284Z"/></svg>